<?xml version="1.0" encoding="UTF-8" standalone="no"?>
<!DOCTYPE svg PUBLIC "-//W3C//DTD SVG 1.1//EN" "http://www.w3.org/Graphics/SVG/1.1/DTD/svg11.dtd"
[
<!ATTLIST g
  xmlns:vectornator CDATA #FIXED "http://vectornator.io"
  vectornator:layerName CDATA #IMPLIED >
<!ATTLIST g
  xmlns:vectornator CDATA #FIXED "http://vectornator.io"
  vectornator:mask CDATA #IMPLIED >
<!ATTLIST text
  xmlns:vectornator CDATA #FIXED "http://vectornator.io"
  vectornator:width CDATA #IMPLIED >

<!ATTLIST path
  xmlns:vectornator CDATA #FIXED "http://vectornator.io"
  vectornator:blendMode CDATA #IMPLIED >
<!ATTLIST path
  xmlns:vectornator CDATA #FIXED "http://vectornator.io"
  vectornator:shadowColor CDATA #IMPLIED >
<!ATTLIST path
  xmlns:vectornator CDATA #FIXED "http://vectornator.io"
  vectornator:shadowOpacity CDATA #IMPLIED >
<!ATTLIST path
  xmlns:vectornator CDATA #FIXED "http://vectornator.io"
  vectornator:shadowRadius CDATA #IMPLIED >
<!ATTLIST path
  xmlns:vectornator CDATA #FIXED "http://vectornator.io"
  vectornator:shadowOffset CDATA #IMPLIED >
<!ATTLIST path
  xmlns:vectornator CDATA #FIXED "http://vectornator.io"
  vectornator:shadowAngle CDATA #IMPLIED >

<!ATTLIST image
  xmlns:vectornator CDATA #FIXED "http://vectornator.io"
  vectornator:blendMode CDATA #IMPLIED >
<!ATTLIST image
  xmlns:vectornator CDATA #FIXED "http://vectornator.io"
  vectornator:shadowColor CDATA #IMPLIED >
<!ATTLIST image
  xmlns:vectornator CDATA #FIXED "http://vectornator.io"
  vectornator:shadowOpacity CDATA #IMPLIED >
<!ATTLIST image
  xmlns:vectornator CDATA #FIXED "http://vectornator.io"
  vectornator:shadowRadius CDATA #IMPLIED >
<!ATTLIST image
  xmlns:vectornator CDATA #FIXED "http://vectornator.io"
  vectornator:shadowOffset CDATA #IMPLIED >
<!ATTLIST image
  xmlns:vectornator CDATA #FIXED "http://vectornator.io"
  vectornator:shadowAngle CDATA #IMPLIED >

<!ATTLIST g
  xmlns:vectornator CDATA #FIXED "http://vectornator.io"
  vectornator:blendMode CDATA #IMPLIED >
<!ATTLIST g
  xmlns:vectornator CDATA #FIXED "http://vectornator.io"
  vectornator:shadowColor CDATA #IMPLIED >
<!ATTLIST g
  xmlns:vectornator CDATA #FIXED "http://vectornator.io"
  vectornator:shadowOpacity CDATA #IMPLIED >
<!ATTLIST g
  xmlns:vectornator CDATA #FIXED "http://vectornator.io"
  vectornator:shadowRadius CDATA #IMPLIED >
<!ATTLIST g
  xmlns:vectornator CDATA #FIXED "http://vectornator.io"
  vectornator:shadowOffset CDATA #IMPLIED >
<!ATTLIST g
  xmlns:vectornator CDATA #FIXED "http://vectornator.io"
  vectornator:shadowAngle CDATA #IMPLIED >

<!ENTITY % SVG.filter.extra.content  "| feDropShadow" >
<!ELEMENT feDropShadow EMPTY>
<!ATTLIST feDropShadow
  xmlns:svg CDATA #FIXED "http://www.w3.org/Graphics/SVG/1.1/DTD/svg11.dtd"
  dx CDATA #IMPLIED>
<!ATTLIST feDropShadow
  xmlns:svg CDATA #FIXED "http://www.w3.org/Graphics/SVG/1.1/DTD/svg11.dtd"
  dy CDATA #IMPLIED>
<!ATTLIST feDropShadow
  xmlns:svg CDATA #FIXED "http://www.w3.org/Graphics/SVG/1.1/DTD/svg11.dtd"
  stdDeviation CDATA #IMPLIED>
<!ATTLIST feDropShadow
  xmlns:svg CDATA #FIXED "http://www.w3.org/Graphics/SVG/1.1/DTD/svg11.dtd"
  flood-opacity CDATA #IMPLIED>
<!ATTLIST feDropShadow
  xmlns:svg CDATA #FIXED "http://www.w3.org/Graphics/SVG/1.1/DTD/svg11.dtd"
  in CDATA #IMPLIED>
<!ATTLIST feDropShadow
  xmlns:svg CDATA #FIXED "http://www.w3.org/Graphics/SVG/1.1/DTD/svg11.dtd"
  result CDATA #IMPLIED>
<!ATTLIST feDropShadow
  xmlns:svg CDATA #FIXED "http://www.w3.org/Graphics/SVG/1.1/DTD/svg11.dtd"
  flood-color CDATA #IMPLIED>
]
>
<!-- Created with Vectornator (http://vectornator.io/) -->
<svg height="100%" stroke-miterlimit="10" style="fill-rule:nonzero;clip-rule:evenodd;stroke-linecap:round;stroke-linejoin:round;" version="1.1" viewBox="0 0 1006 169" width="100%" xml:space="preserve" xmlns="http://www.w3.org/2000/svg" xmlns:vectornator="http://vectornator.io" xmlns:xlink="http://www.w3.org/1999/xlink">
<defs>
<clipPath id="TextBounds">
<rect height="106.495" width="943.13" x="36.0555" y="35.3005"/>
</clipPath>
</defs>
<g id="name" vectornator:layerName="name">
<g fill="#309c9c" opacity="1" stroke="none">
<path clip-path="url(#TextBounds)" d="M84.4255 78.5365L97.4975 78.5365C97.0962 74.9818 96.1215 71.8285 94.5735 69.0765C93.0255 66.3245 91.0618 64.0168 88.6825 62.1535C86.3032 60.2901 83.6085 58.8711 80.5985 57.8965C77.5885 56.9218 74.3922 56.4345 71.0095 56.4345C66.3082 56.4345 62.0798 57.2658 58.3245 58.9285C54.5692 60.5911 51.4015 62.8845 48.8215 65.8085C46.2415 68.7325 44.2635 72.1581 42.8875 76.0855C41.5115 80.0128 40.8235 84.2698 40.8235 88.8565C40.8235 93.3285 41.5115 97.4994 42.8875 101.369C44.2635 105.239 46.2415 108.608 48.8215 111.474C51.4015 114.341 54.5692 116.591 58.3245 118.225C62.0798 119.859 66.3082 120.676 71.0095 120.676C74.7935 120.676 78.2622 120.103 81.4155 118.956C84.5688 117.81 87.3208 116.147 89.6715 113.968C92.0222 111.79 93.9142 109.152 95.3475 106.056C96.7808 102.96 97.6695 99.4918 98.0135 95.6505L84.9415 95.6505C84.4255 99.7785 83.0065 103.104 80.6845 105.626C78.3625 108.149 75.1375 109.41 71.0095 109.41C67.9708 109.41 65.3908 108.823 63.2695 107.647C61.1482 106.472 59.4282 104.91 58.1095 102.96C56.7908 101.011 55.8305 98.8181 55.2285 96.3815C54.6265 93.9448 54.3255 91.4365 54.3255 88.8565C54.3255 86.1618 54.6265 83.5531 55.2285 81.0305C55.8305 78.5078 56.7908 76.2575 58.1095 74.2795C59.4282 72.3015 61.1482 70.7248 63.2695 69.5495C65.3908 68.3741 67.9708 67.7865 71.0095 67.7865C72.6722 67.7865 74.2632 68.0588 75.7825 68.6035C77.3018 69.1481 78.6635 69.9078 79.8675 70.8825C81.0715 71.8571 82.0748 72.9895 82.8775 74.2795C83.6802 75.5695 84.1962 76.9885 84.4255 78.5365Z" fill-rule="evenodd"/>
<path clip-path="url(#TextBounds)" d="M116.761 97.1125C116.761 95.3351 116.933 93.5865 117.277 91.8665C117.621 90.1465 118.209 88.6271 119.04 87.3085C119.872 85.9898 120.975 84.9148 122.351 84.0835C123.727 83.2521 125.447 82.8365 127.511 82.8365C129.575 82.8365 131.31 83.2521 132.714 84.0835C134.119 84.9148 135.237 85.9898 136.068 87.3085C136.9 88.6271 137.487 90.1465 137.831 91.8665C138.175 93.5865 138.347 95.3351 138.347 97.1125C138.347 98.8898 138.175 100.624 137.831 102.315C137.487 104.007 136.9 105.526 136.068 106.873C135.237 108.221 134.119 109.296 132.714 110.098C131.31 110.901 129.575 111.302 127.511 111.302C125.447 111.302 123.727 110.901 122.351 110.098C120.975 109.296 119.872 108.221 119.04 106.873C118.209 105.526 117.621 104.007 117.277 102.315C116.933 100.624 116.761 98.8898 116.761 97.1125ZM104.549 97.1125C104.549 100.667 105.094 103.878 106.183 106.744C107.273 109.611 108.821 112.062 110.827 114.097C112.834 116.133 115.242 117.695 118.051 118.784C120.861 119.874 124.014 120.418 127.511 120.418C131.009 120.418 134.176 119.874 137.014 118.784C139.852 117.695 142.275 116.133 144.281 114.097C146.288 112.062 147.836 109.611 148.925 106.744C150.015 103.878 150.559 100.667 150.559 97.1125C150.559 93.5578 150.015 90.3328 148.925 87.4375C147.836 84.5421 146.288 82.0768 144.281 80.0415C142.275 78.0061 139.852 76.4295 137.014 75.3115C134.176 74.1935 131.009 73.6345 127.511 73.6345C124.014 73.6345 120.861 74.1935 118.051 75.3115C115.242 76.4295 112.834 78.0061 110.827 80.0415C108.821 82.0768 107.273 84.5421 106.183 87.4375C105.094 90.3328 104.549 93.5578 104.549 97.1125Z" fill-rule="evenodd"/>
<path clip-path="url(#TextBounds)" d="M158.815 74.8385L158.815 119.3L171.027 119.3L171.027 93.5005C171.027 91.3218 171.343 89.5588 171.973 88.2115C172.604 86.8641 173.364 85.8321 174.252 85.1155C175.141 84.3988 176.058 83.9115 177.004 83.6535C177.95 83.3955 178.71 83.2665 179.283 83.2665C181.233 83.2665 182.709 83.5961 183.712 84.2555C184.716 84.9148 185.432 85.7891 185.862 86.8785C186.292 87.9678 186.536 89.1575 186.593 90.4475C186.651 91.7375 186.679 93.0418 186.679 94.3605L186.679 119.3L198.891 119.3L198.891 94.5325C198.891 93.1565 198.992 91.7948 199.192 90.4475C199.393 89.1001 199.794 87.8961 200.396 86.8355C200.998 85.7748 201.83 84.9148 202.89 84.2555C203.951 83.5961 205.341 83.2665 207.061 83.2665C208.781 83.2665 210.143 83.5531 211.146 84.1265C212.15 84.6998 212.909 85.4738 213.425 86.4485C213.941 87.4231 214.257 88.5698 214.371 89.8885C214.486 91.2071 214.543 92.6118 214.543 94.1025L214.543 119.3L226.755 119.3L226.755 89.5445C226.755 86.6778 226.354 84.2268 225.551 82.1915C224.749 80.1561 223.631 78.5078 222.197 77.2465C220.764 75.9851 219.044 75.0678 217.037 74.4945C215.031 73.9211 212.852 73.6345 210.501 73.6345C207.405 73.6345 204.725 74.3798 202.46 75.8705C200.196 77.3611 198.404 79.0811 197.085 81.0305C195.881 78.2785 194.118 76.3578 191.796 75.2685C189.474 74.1791 186.909 73.6345 184.099 73.6345C181.175 73.6345 178.581 74.2651 176.316 75.5265C174.052 76.7878 172.117 78.5651 170.511 80.8585L170.339 80.8585L170.339 74.8385L158.815 74.8385Z" fill-rule="evenodd"/>
<path clip-path="url(#TextBounds)" d="M268.981 97.1125C268.981 98.9471 268.781 100.724 268.379 102.444C267.978 104.164 267.347 105.684 266.487 107.002C265.627 108.321 264.552 109.367 263.262 110.141C261.972 110.915 260.41 111.302 258.575 111.302C256.798 111.302 255.25 110.915 253.931 110.141C252.613 109.367 251.523 108.321 250.663 107.002C249.803 105.684 249.173 104.164 248.771 102.444C248.37 100.724 248.169 98.9471 248.169 97.1125C248.169 95.2205 248.37 93.4145 248.771 91.6945C249.173 89.9745 249.803 88.4551 250.663 87.1365C251.523 85.8178 252.613 84.7715 253.931 83.9975C255.25 83.2235 256.798 82.8365 258.575 82.8365C260.41 82.8365 261.972 83.2235 263.262 83.9975C264.552 84.7715 265.627 85.8178 266.487 87.1365C267.347 88.4551 267.978 89.9745 268.379 91.6945C268.781 93.4145 268.981 95.2205 268.981 97.1125ZM236.387 57.8965L236.387 119.3L247.997 119.3L247.997 113.624L248.169 113.624C249.488 116.09 251.437 117.838 254.017 118.87C256.597 119.902 259.521 120.418 262.789 120.418C265.025 120.418 267.233 119.96 269.411 119.042C271.59 118.125 273.554 116.72 275.302 114.828C277.051 112.936 278.47 110.514 279.559 107.561C280.649 104.609 281.193 101.097 281.193 97.0265C281.193 92.9558 280.649 89.4441 279.559 86.4915C278.47 83.5388 277.051 81.1165 275.302 79.2245C273.554 77.3325 271.59 75.9278 269.411 75.0105C267.233 74.0931 265.025 73.6345 262.789 73.6345C260.037 73.6345 257.386 74.1648 254.834 75.2255C252.283 76.2861 250.262 77.9631 248.771 80.2565L248.599 80.2565L248.599 57.8965L236.387 57.8965Z" fill-rule="evenodd"/>
<path clip-path="url(#TextBounds)" d="M301.489 67.9585L301.489 57.8965L289.277 57.8965L289.277 67.9585L301.489 67.9585ZM289.277 74.8385L289.277 119.3L301.489 119.3L301.489 74.8385L289.277 74.8385Z" fill-rule="evenodd"/>
<path clip-path="url(#TextBounds)" d="M308.369 110.098L308.369 119.3L349.219 119.3L349.219 110.098L324.451 110.098L347.585 84.0405L347.585 74.8385L310.089 74.8385L310.089 84.0405L331.503 84.0405L308.369 110.098Z" fill-rule="evenodd"/>
<path clip-path="url(#TextBounds)" d="M380.953 57.8965L380.953 119.3L394.455 119.3L394.455 99.5205L402.195 91.6945L420.685 119.3L437.627 119.3L411.311 82.1485L435.305 57.8965L418.449 57.8965L394.455 83.3525L394.455 57.8965L380.953 57.8965Z" fill-rule="evenodd"/>
<path clip-path="url(#TextBounds)" d="M441.755 57.8965L441.755 119.3L453.967 119.3L453.967 95.9945C453.967 91.4651 454.713 88.2115 456.203 86.2335C457.694 84.2555 460.102 83.2665 463.427 83.2665C466.351 83.2665 468.387 84.1695 469.533 85.9755C470.68 87.7815 471.253 90.5191 471.253 94.1885L471.253 119.3L483.465 119.3L483.465 91.9525C483.465 89.2005 483.222 86.6921 482.734 84.4275C482.247 82.1628 481.401 80.2421 480.197 78.6655C478.993 77.0888 477.345 75.8561 475.252 74.9675C473.16 74.0788 470.479 73.6345 467.211 73.6345C464.918 73.6345 462.567 74.2221 460.159 75.3975C457.751 76.5728 455.773 78.4505 454.225 81.0305L453.967 81.0305L453.967 57.8965L441.755 57.8965Z" fill-rule="evenodd"/>
<path clip-path="url(#TextBounds)" d="M503.589 97.1125C503.589 95.3351 503.761 93.5865 504.105 91.8665C504.449 90.1465 505.037 88.6271 505.868 87.3085C506.7 85.9898 507.803 84.9148 509.179 84.0835C510.555 83.2521 512.275 82.8365 514.339 82.8365C516.403 82.8365 518.138 83.2521 519.542 84.0835C520.947 84.9148 522.065 85.9898 522.896 87.3085C523.728 88.6271 524.315 90.1465 524.659 91.8665C525.003 93.5865 525.175 95.3351 525.175 97.1125C525.175 98.8898 525.003 100.624 524.659 102.315C524.315 104.007 523.728 105.526 522.896 106.873C522.065 108.221 520.947 109.296 519.542 110.098C518.138 110.901 516.403 111.302 514.339 111.302C512.275 111.302 510.555 110.901 509.179 110.098C507.803 109.296 506.7 108.221 505.868 106.873C505.037 105.526 504.449 104.007 504.105 102.315C503.761 100.624 503.589 98.8898 503.589 97.1125ZM491.377 97.1125C491.377 100.667 491.922 103.878 493.011 106.744C494.101 109.611 495.649 112.062 497.655 114.097C499.662 116.133 502.07 117.695 504.879 118.784C507.689 119.874 510.842 120.418 514.339 120.418C517.837 120.418 521.004 119.874 523.842 118.784C526.68 117.695 529.103 116.133 531.109 114.097C533.116 112.062 534.664 109.611 535.753 106.744C536.843 103.878 537.387 100.667 537.387 97.1125C537.387 93.5578 536.843 90.3328 535.753 87.4375C534.664 84.5421 533.116 82.0768 531.109 80.0415C529.103 78.0061 526.68 76.4295 523.842 75.3115C521.004 74.1935 517.837 73.6345 514.339 73.6345C510.842 73.6345 507.689 74.1935 504.879 75.3115C502.07 76.4295 499.662 78.0061 497.655 80.0415C495.649 82.0768 494.101 84.5421 493.011 87.4375C491.922 90.3328 491.377 93.5578 491.377 97.1125Z" fill-rule="evenodd"/>
<path clip-path="url(#TextBounds)" d="M542.547 110.098L542.547 119.3L583.397 119.3L583.397 110.098L558.629 110.098L581.763 84.0405L581.763 74.8385L544.267 74.8385L544.267 84.0405L565.681 84.0405L542.547 110.098Z" fill-rule="evenodd"/>
<path clip-path="url(#TextBounds)" d="M600.769 97.1125C600.769 95.3351 600.941 93.5865 601.285 91.8665C601.629 90.1465 602.217 88.6271 603.048 87.3085C603.88 85.9898 604.983 84.9148 606.359 84.0835C607.735 83.2521 609.455 82.8365 611.519 82.8365C613.583 82.8365 615.318 83.2521 616.722 84.0835C618.127 84.9148 619.245 85.9898 620.076 87.3085C620.908 88.6271 621.495 90.1465 621.839 91.8665C622.183 93.5865 622.355 95.3351 622.355 97.1125C622.355 98.8898 622.183 100.624 621.839 102.315C621.495 104.007 620.908 105.526 620.076 106.873C619.245 108.221 618.127 109.296 616.722 110.098C615.318 110.901 613.583 111.302 611.519 111.302C609.455 111.302 607.735 110.901 606.359 110.098C604.983 109.296 603.88 108.221 603.048 106.873C602.217 105.526 601.629 104.007 601.285 102.315C600.941 100.624 600.769 98.8898 600.769 97.1125ZM588.557 97.1125C588.557 100.667 589.102 103.878 590.191 106.744C591.281 109.611 592.829 112.062 594.835 114.097C596.842 116.133 599.25 117.695 602.059 118.784C604.869 119.874 608.022 120.418 611.519 120.418C615.017 120.418 618.184 119.874 621.022 118.784C623.86 117.695 626.283 116.133 628.289 114.097C630.296 112.062 631.844 109.611 632.933 106.744C634.023 103.878 634.567 100.667 634.567 97.1125C634.567 93.5578 634.023 90.3328 632.933 87.4375C631.844 84.5421 630.296 82.0768 628.289 80.0415C626.283 78.0061 623.86 76.4295 621.022 75.3115C618.184 74.1935 615.017 73.6345 611.519 73.6345C608.022 73.6345 604.869 74.1935 602.059 75.3115C599.25 76.4295 596.842 78.0061 594.835 80.0415C592.829 82.0768 591.281 84.5421 590.191 87.4375C589.102 90.3328 588.557 93.5578 588.557 97.1125Z" fill-rule="evenodd"/>
<path clip-path="url(#TextBounds)" d="M655.035 67.9585L655.035 57.8965L642.823 57.8965L642.823 67.9585L655.035 67.9585ZM642.823 74.8385L642.823 119.3L655.035 119.3L655.035 74.8385L642.823 74.8385Z" fill-rule="evenodd"/>
<path clip-path="url(#TextBounds)" d="M694.595 92.2965L674.729 92.2965C674.787 91.4365 674.973 90.4618 675.288 89.3725C675.604 88.2831 676.148 87.2511 676.922 86.2765C677.696 85.3018 678.728 84.4848 680.018 83.8255C681.308 83.1661 682.928 82.8365 684.877 82.8365C687.859 82.8365 690.08 83.6391 691.542 85.2445C693.004 86.8498 694.022 89.2004 694.595 92.2965ZM674.729 100.036L706.807 100.036C707.037 96.5964 706.75 93.2998 705.947 90.1465C705.145 86.9931 703.84 84.1838 702.034 81.7185C700.228 79.2531 697.921 77.2895 695.111 75.8275C692.302 74.3655 689.005 73.6345 685.221 73.6345C681.839 73.6345 678.757 74.2365 675.976 75.4405C673.196 76.6445 670.802 78.2928 668.795 80.3855C666.789 82.4781 665.241 84.9578 664.151 87.8245C663.062 90.6911 662.517 93.7871 662.517 97.1125C662.517 100.552 663.048 103.706 664.108 106.572C665.169 109.439 666.674 111.904 668.623 113.968C670.573 116.032 672.952 117.623 675.761 118.741C678.571 119.859 681.724 120.418 685.221 120.418C690.267 120.418 694.567 119.272 698.121 116.978C701.676 114.685 704.313 110.872 706.033 105.54L695.283 105.54C694.882 106.916 693.793 108.221 692.015 109.453C690.238 110.686 688.117 111.302 685.651 111.302C682.211 111.302 679.574 110.414 677.739 108.636C675.905 106.859 674.901 103.992 674.729 100.036Z" fill-rule="evenodd"/>
<path clip-path="url(#TextBounds)" d="M714.633 106.056L714.633 119.3L720.825 119.3C720.883 120.218 720.768 121.121 720.481 122.009C720.195 122.898 719.765 123.701 719.191 124.417C718.618 125.134 717.944 125.75 717.17 126.266C716.396 126.782 715.579 127.126 714.719 127.298L714.719 133.49C716.554 133.204 718.288 132.673 719.922 131.899C721.556 131.125 722.975 130.136 724.179 128.932C725.383 127.728 726.344 126.309 727.06 124.675C727.777 123.041 728.135 121.25 728.135 119.3L728.135 106.056L714.633 106.056Z" fill-rule="evenodd"/>
<path clip-path="url(#TextBounds)" d="M776.639 86.7925L776.639 68.3885L787.131 68.3885C788.679 68.3885 790.17 68.5031 791.603 68.7325C793.037 68.9618 794.298 69.4061 795.387 70.0655C796.477 70.7248 797.351 71.6565 798.01 72.8605C798.67 74.0645 798.999 75.6411 798.999 77.5905C798.999 79.5398 798.67 81.1165 798.01 82.3205C797.351 83.5245 796.477 84.4561 795.387 85.1155C794.298 85.7748 793.037 86.2191 791.603 86.4485C790.17 86.6778 788.679 86.7925 787.131 86.7925L776.639 86.7925ZM763.137 57.8965L763.137 119.3L776.639 119.3L776.639 97.2845L790.829 97.2845C794.671 97.2845 797.939 96.7255 800.633 95.6075C803.328 94.4895 805.521 93.0131 807.212 91.1785C808.904 89.3438 810.136 87.2368 810.91 84.8575C811.684 82.4781 812.071 80.0558 812.071 77.5905C812.071 75.0678 811.684 72.6311 810.91 70.2805C810.136 67.9298 808.904 65.8371 807.212 64.0025C805.521 62.1678 803.328 60.6915 800.633 59.5735C797.939 58.4555 794.671 57.8965 790.829 57.8965L763.137 57.8965Z" fill-rule="evenodd"/>
<path clip-path="url(#TextBounds)" d="M819.209 57.8965L819.209 119.3L831.421 119.3L831.421 95.9945C831.421 91.4651 832.167 88.2115 833.657 86.2335C835.148 84.2555 837.556 83.2665 840.881 83.2665C843.805 83.2665 845.841 84.1695 846.987 85.9755C848.134 87.7815 848.707 90.5191 848.707 94.1885L848.707 119.3L860.919 119.3L860.919 91.9525C860.919 89.2005 860.676 86.6921 860.188 84.4275C859.701 82.1628 858.855 80.2421 857.651 78.6655C856.447 77.0888 854.799 75.8561 852.706 74.9675C850.614 74.0788 847.933 73.6345 844.665 73.6345C842.372 73.6345 840.021 74.2221 837.613 75.3975C835.205 76.5728 833.227 78.4505 831.679 81.0305L831.421 81.0305L831.421 57.8965L819.209 57.8965Z" fill-rule="evenodd"/>
<path clip-path="url(#TextBounds)" d="M870.723 106.056L870.723 119.3L884.225 119.3L884.225 106.056L870.723 106.056Z" fill-rule="evenodd"/>
<path clip-path="url(#TextBounds)" d="M908.907 107.948L908.907 69.2485L918.539 69.2485C921.865 69.2485 924.66 69.7215 926.924 70.6675C929.189 71.6135 931.009 72.9751 932.385 74.7525C933.761 76.5298 934.75 78.6655 935.352 81.1595C935.954 83.6535 936.255 86.4484 936.255 89.5445C936.255 92.9271 935.825 95.7938 934.965 98.1445C934.105 100.495 932.959 102.401 931.525 103.863C930.092 105.325 928.458 106.372 926.623 107.002C924.789 107.633 922.897 107.948 920.947 107.948L908.907 107.948ZM895.405 57.8965L895.405 119.3L921.893 119.3C926.595 119.3 930.68 118.512 934.148 116.935C937.617 115.359 940.512 113.194 942.834 110.442C945.156 107.69 946.891 104.422 948.037 100.638C949.184 96.8544 949.757 92.7265 949.757 88.2545C949.757 83.1518 949.055 78.7085 947.65 74.9245C946.246 71.1404 944.296 67.9871 941.802 65.4645C939.308 62.9418 936.356 61.0498 932.944 59.7885C929.533 58.5271 925.849 57.8965 921.893 57.8965L895.405 57.8965Z" fill-rule="evenodd"/>
<path clip-path="url(#TextBounds)" d="M958.357 106.056L958.357 119.3L971.859 119.3L971.859 106.056L958.357 106.056Z" fill-rule="evenodd"/>
</g>
</g>
</svg>
