<!-- Modifications by CK, based on the original work of Matt Fantinel, https://github.com/matfantinel !-->
<svg
  class="waves"
  xmlns="http://www.w3.org/2000/svg"
  xmlns:xlink="http://www.w3.org/1999/xlink"
  viewBox="0 24 150 28"
  preserveAspectRatio="none"
  shape-rendering="auto"
>
  <defs>
    <path id="gentle-wave" d="M -160 44 L -160 44 L -160 88 z L -150 44 L -150 88 L -149 88 L -149 43 L -139 43 L -139 88 L -138 88 L -138 41 L -128 41 L -128 88 L -127 88 L -127 38 L -117 38 L -117 88 L -116 88 L -116 35 L -106 35 L -106 88 L -105 88 L -105 32 L -95 32 L -95 88 L -94 88 L -94 29 L -84 29 L -84 88 L -83 88 L -83 27 L -73 27 L -73 88 L -72 88 L -72 26 L -62 26 L -62 88 L -61 88 L -61 27 L -51 27 L -51 88 L -50 88 L -50 29 L -40 29 L -40 88 L -39 88 L -39 32 L -29 32 L -29 88 L -28 88 L -28 35 L -18 35 L -18 88 L -17 88 L -17 38 L -7 38 L -7 88 L -6 88 L -6 41 L 4 41 L 4 88 L 5 88 L 5 43 L 15 43 L 15 88 L 16 88 L 16 44 L 26 44 L 26 88 L 27 88 L 27 43 L 37 43 L 37 88 L 38 88 L 38 41 L 48 41 L 48 88 L 49 88 L 49 38 L 59 38 L 59 88 L 60 88 L 60 35 L 70 35 L 70 88 L 71 88 L 71 32 L 81 32 L 81 88 L 82 88 L 82 29 L 92 29 L 92 88 L 93 88 L 93 27 L 103 27 L 103 88 L 104 88 L 104 26 L 114 26 L 114 88 L 115 88 L 115 27 L 125 27 L 125 88 L 126 88 L 126 29 L 136 29 L 136 88 L 137 88 L 137 32 L 147 32 L 147 88 L 148 88 L 148 35 L 158 35 L 158 88 L 159 88 L 159 38 L 169 38 L 169 88 L 170 88 L 170 41 L 180 41 L 180 88 L 181 88 L 181 43 L 191 43 L 191 88 L -160 88" />
    
  </defs>
  <g class="parallax">
    <use xlink:href="#gentle-wave" x="48" y="0" fill="rgba( 196, 235, 206, 0.4)" />
    <use xlink:href="#gentle-wave" x="48" y="2" fill="rgba( 51, 164, 157, 0.3)" />
    <use xlink:href="#gentle-wave" x="48" y="5" fill="rgba(42,112,148, 0.1)" />
    <use xlink:href="#gentle-wave" x="48" y="9" fill="rgba(50, 47, 113, 0.2)" />
  </g>

  <style>
    .waves {
      position: absolute;
      bottom: 0;
      width: 100%;
      height: 100px;
      min-height: 50px;
      max-height: 100px;
      border-radius: 25px;
      background-color: #FFF;
    }
    .parallax>use {
      animation: move-forever 25s cubic-bezier(.55, .5, .45, .5) infinite;      
    }
    .parallax>use:nth-child(1) {
      animation-delay: -2s;
      animation-duration: 7s;
    }
    .parallax>use:nth-child(2) {
      animation-delay: -3s;
      animation-duration: 10s;
    }
    .parallax>use:nth-child(3) {
      animation-delay: -4s;
      animation-duration: 13s;
    }
    .parallax>use:nth-child(4) {
      animation-delay: -5s;
      animation-duration: 20s;
    }
    @keyframes move-forever {
      0% {
        transform: translate3d(-90px, 0, 0);
      }
      100% {
        transform: translate3d(85px, 0, 0);
      }
    }
  </style>

</svg>